{"title":"Ridiculousness S06E19 HDTV x264-LaS","uid":11795014,"size":171122371,"categoryP":"video","categoryS":"tv_shows","magnet":"?xt=urn:btih:b3528df6099c2ed404e8692bf4fee5b784828b79&amp;dn=Ridiculousness+S06E19+HDTV+x264-LaS&amp;tr=udp%3A%2F%2Ftracker.openbittorrent.com%3A80&amp;tr=udp%3A%2F%2Fopen.demonii.com%3A1337&amp;tr=udp%3A%2F%2Ftracker.coppersurfer.tk%3A6969&amp;tr=udp%3A%2F%2Fexodus.desync.com%3A6969","seeders":1,"leechers":4,"uploader":"TvTeam","files":4,"time":1428104377,"description":" &lt;a href=&quot;https://www.torrenting.com&quot; rel=&quot;nofollow&quot; target=&quot;_NEW&quot;&gt;https://www.torrenting.com&lt;/a&gt;\n\nSign up is OPEN - for time being. Come and have fun.\n------------------------------------------------------------------------\n ^_^                           +      + +    \n                                +--++----+    \n                                +    \n                                +--+----    \n                           +      \n                           +------++-+  +-++------+    \n                                                                                                               \n*******************************************************************************\n                    Ridiculousness S06E19 HDTV x264-LaS \n*******************************************************************************\n\n-------------------------------------------------------------------------------\n                              General Information\n-------------------------------------------------------------------------------\nType.................: TV Show\nVideo Format.........: x264\nResolution...........: 720x400\nFPS..................: 23.976\n\nRidiculousness S06E19 HDTV x264-LaS.mp4\nFormat : MPEG-4\nFormat profile : Base Media / Version 2\nCodec ID : mp42\nFile size : 160 MiB\nDuration : 20mn 20s\nOverall bit rate mode : Variable\nOverall bit rate : 1 101 Kbps\n\n\nVideo\nID : 1\nFormat : AVC\nFormat/Info : Advanced Video Codec\nFormat profile : &lt;a class=&quot;__cf_email__&quot; href=&quot;/cdn-cgi/l/email-protection&quot; data-cfemail=&quot;6c24050b042c2058425d&quot;&gt;[email&amp;#160;protected]&lt;/a&gt;&lt;script cf-hash='f9e31' type=&quot;text/javascript&quot;&gt;\n/* &lt;![CDATA[ */!function(){try{var t=&quot;currentScript&quot;in document?document.currentScript:function(){for(var t=document.getElementsByTagName(&quot;script&quot;),e=t.length;e--;)if(t[e].getAttribute(&quot;cf-hash&quot;))return t[e]}();if(t&amp;&amp;t.previousSibling){var e,r,n,i,c=t.previousSibling,a=c.getAttribute(&quot;data-cfemail&quot;);if(a){for(e=&quot;&quot;,r=parseInt(a.substr(0,2),16),n=2;a.length-n;n+=2)i=parseInt(a.substr(n,2),16)^r,e+=String.fromCharCode(i);e=document.createTextNode(e),c.parentNode.replaceChild(e,c)}}}catch(u){}}();/* ]]&gt; */&lt;/script&gt;\nFormat settings, CABAC : Yes\nFormat settings, ReFrames : 4 frames\nCodec ID : avc1\nCodec ID/Info : Advanced Video Coding\nDuration : 20mn 20s\nBit rate : 1 000 Kbps\nWidth : 720 pixels\nHeight : 400 pixels\nDisplay aspect ratio : 16:9\nFrame rate mode : Variable\nFrame rate : 23.976 fps\nMinimum frame rate : 23.974 fps\nColor space : YUV\nChroma subsampling : 4:2:0\nBit depth : 8 bits\nScan type : Progressive\nBits/(Pixel*Frame) : 0.145\nStream size : 145 MiB (91%)\nWriting library : x264 core 130 r2273 b3065e6\n\n\nAudio\nID : 2\nFormat : AAC\nFormat/Info : Advanced Audio Codec\nFormat profile : LC\nCodec ID : 40\nDuration : 20mn 20s\nBit rate mode : Variable\nBit rate : 96.0 Kbps\nMaximum bit rate : 209 Kbps\nChannel(s) : 2 channels\nChannel positions : Front: L R\nSampling rate : 44.1 KHz\nCompression mode : Lossy\nStream size : 14.0 MiB (9%)\n\n-------------------------------------------------------------------------------\n                                 Release Notes\n-------------------------------------------------------------------------------\nRidiculousness S06E19 \nAirdate: April 2, 2015","torrent":{"xt":"urn:btih:b3528df6099c2ed404e8692bf4fee5b784828b79","amp;dn":"Ridiculousness+S06E19+HDTV+x264-LaS","amp;tr":["udp%3A%2F%2Ftracker.openbittorrent.com%3A80","udp%3A%2F%2Fopen.demonii.com%3A1337","udp%3A%2F%2Ftracker.coppersurfer.tk%3A6969","udp%3A%2F%2Fexodus.desync.com%3A6969"],"infoHash":"b3528df6099c2ed404e8692bf4fee5b784828b79","infoHashBuffer":{"type":"Buffer","data":[179,82,141,246,9,156,46,212,4,232,105,43,244,254,229,183,132,130,139,121]},"announce":[],"urlList":[]}}